<svg id="Layer_1" data-name="Layer 1" xmlns="http://www.w3.org/2000/svg" viewBox="0 0 177.47 79.27"><defs><style>.cls-1{fill:#333131;}</style></defs><title>logo</title><path class="cls-1" d="M64.68,32.5a10.93,10.93,0,0,1-1.27-.07V36H61.13V25.2c1-.07,1.87-.13,3.29-.11,2.73,0,4.48,1.05,4.5,3.57S67.16,32.5,64.68,32.5Zm2-3.72c0-1.08-.75-1.74-2.06-1.74-.51,0-.91,0-1.17,0v3.46a7.45,7.45,0,0,0,1,.06C65.81,30.59,66.64,30.06,66.64,28.78Z"/><path class="cls-1" d="M75.73,27.51v2.08h0a2.57,2.57,0,0,0-.86-.13c-.93,0-1.9.49-2,2.15V36H70.5V27.57h1.87l.21,1.17a2.48,2.48,0,0,1,2.24-1.36A2.75,2.75,0,0,1,75.73,27.51Z"/><path class="cls-1" d="M76.4,31.76a4.26,4.26,0,0,1,4.52-4.4,4.19,4.19,0,0,1,4.53,4.39,4.28,4.28,0,0,1-4.53,4.44A4.22,4.22,0,0,1,76.4,31.76Zm6.69,0a2.18,2.18,0,1,0-4.33,0,2.17,2.17,0,0,0,2.16,2.47A2.2,2.2,0,0,0,83.09,31.75Z"/><path class="cls-1" d="M100.47,30.76V36H98.18V31.44c0-1.41-.72-1.87-1.54-1.87A1.69,1.69,0,0,0,95,30.72V36H92.7V31.44c0-1.41-.73-1.87-1.54-1.87a1.64,1.64,0,0,0-1.64,1.27V36H87.23V27.57h1.86l.22,1.12a3,3,0,0,1,2.63-1.33,2.9,2.9,0,0,1,2.65,1.51,3.07,3.07,0,0,1,2.79-1.51C99.1,27.36,100.47,28.55,100.47,30.76Z"/><path class="cls-1" d="M102.39,25a1.4,1.4,0,1,1,1.4,1.4A1.42,1.42,0,0,1,102.39,25Zm.26,2.55h2.29V36h-2.29Z"/><path class="cls-1" d="M106.78,35.57V33.65l.07,0a5.62,5.62,0,0,0,2.89.84c1,0,1.53-.23,1.53-.78s-.38-.73-1.89-1.15c-1.75-.5-2.55-1.24-2.55-2.55,0-1.58,1.46-2.62,3.64-2.62a7.15,7.15,0,0,1,2.59.39v1.89l0,0a6,6,0,0,0-2.44-.47c-.88,0-1.51.24-1.51.7s.37.63,1.8,1c1.79.49,2.6,1.22,2.6,2.58,0,1.73-1.38,2.69-3.61,2.69A7.17,7.17,0,0,1,106.78,35.57Z"/><path class="cls-1" d="M122.89,31.38c0,.37,0,.65,0,1h-5.8a2.37,2.37,0,0,0,2.65,1.95,5.85,5.85,0,0,0,2.58-.59l.07,0v1.81a6.75,6.75,0,0,1-3.09.65c-2.22,0-4.58-1.21-4.58-4.43a4.14,4.14,0,0,1,4.26-4.4C121.35,27.36,122.86,28.79,122.89,31.38ZM120.68,31c-.11-1.15-.73-1.74-1.74-1.74A1.85,1.85,0,0,0,117.09,31Z"/><path class="cls-1" d="M61.49,40.22h.88V51h-.88Z"/><path class="cls-1" d="M72.66,46.15V51h-.88v-4.6c0-2.28-1.24-3.12-2.65-3.12a2.85,2.85,0,0,0-2.71,1.93V51h-.9V42.57h.73L66.37,44a3.41,3.41,0,0,1,3-1.62C71.13,42.38,72.66,43.47,72.66,46.15Z"/><path class="cls-1" d="M80,49.85v.77A3.23,3.23,0,0,1,78.3,51,2.08,2.08,0,0,1,76,48.67V43.32H74.28v-.75H76V40.51l.86-.18,0,0v2.22H80v.75H76.9V48.5c0,1.13.49,1.73,1.63,1.73A2.8,2.8,0,0,0,80,49.84Z"/><path class="cls-1" d="M88.49,46.44a3.17,3.17,0,0,1,0,.44H81.8a3.33,3.33,0,0,0,3.57,3.49A5,5,0,0,0,88,49.69l0,0v.74a5.23,5.23,0,0,1-2.82.72,4.09,4.09,0,0,1-4.33-4.42c0-2.67,1.73-4.37,3.94-4.37S88.47,43.94,88.49,46.44Zm-.89-.31c-.1-1.82-1.09-3-2.77-3a3,3,0,0,0-3,3Z"/><path class="cls-1" d="M95,42.57v.81l-.05,0a2,2,0,0,0-1-.19c-1,0-2,.39-2.39,2.29V51h-.89V42.57h.73l.1,1.37A2.51,2.51,0,0,1,94,42.39,2.66,2.66,0,0,1,95,42.57Z"/><path class="cls-1" d="M103.87,46.15V51H103v-4.6c0-2.28-1.23-3.12-2.65-3.12a2.87,2.87,0,0,0-2.71,1.93V51h-.89V42.57h.73L97.58,44a3.41,3.41,0,0,1,3-1.62C102.34,42.38,103.87,43.47,103.87,46.15Z"/><path class="cls-1" d="M114,50v.78a1.72,1.72,0,0,1-.93.26c-1,0-1.25-.61-1.25-1.43v-.09a3.82,3.82,0,0,1-3.24,1.61,2.38,2.38,0,0,1-2.65-2.35c0-1.87,1.68-2.6,3.3-2.6a7.05,7.05,0,0,1,2.54.42v-.8A2.44,2.44,0,0,0,109,43.16a4.15,4.15,0,0,0-2.31.57l0,0V43a4.77,4.77,0,0,1,2.5-.6c2.15,0,3.47,1.12,3.47,3.41v3.44c0,.7.21,1,.69,1a.9.9,0,0,0,.62-.23Zm-2.23-1.34V47.33a6.45,6.45,0,0,0-2.37-.4c-1.35,0-2.57.53-2.57,1.82a1.68,1.68,0,0,0,1.9,1.64A3.42,3.42,0,0,0,111.74,48.68Z"/><path class="cls-1" d="M120.32,49.85v.77a3.23,3.23,0,0,1-1.72.42,2.08,2.08,0,0,1-2.29-2.37V43.32h-1.72v-.75h1.72V40.51l.86-.18,0,0v2.22h3.07v.75H117.2V48.5c0,1.13.49,1.73,1.63,1.73a2.8,2.8,0,0,0,1.46-.39Z"/><path class="cls-1" d="M121.67,40.13a.66.66,0,0,1,.65-.65.66.66,0,1,1,0,1.32A.66.66,0,0,1,121.67,40.13Zm.21,2.44h.9V51h-.9Z"/><path class="cls-1" d="M125.09,46.75a4.25,4.25,0,1,1,8.5,0,4.16,4.16,0,0,1-4.26,4.41A4.09,4.09,0,0,1,125.09,46.75Zm7.59,0a3.34,3.34,0,1,0-6.67,0c0,2.26,1.4,3.64,3.32,3.64A3.31,3.31,0,0,0,132.68,46.75Z"/><path class="cls-1" d="M143.05,46.15V51h-.88v-4.6c0-2.28-1.23-3.12-2.65-3.12a2.87,2.87,0,0,0-2.71,1.93V51h-.9V42.57h.74l.11,1.43a3.41,3.41,0,0,1,3-1.62C141.52,42.38,143.05,43.47,143.05,46.15Z"/><path class="cls-1" d="M153.14,50v.78a1.66,1.66,0,0,1-.92.26c-1,0-1.25-.61-1.25-1.43v-.09a3.82,3.82,0,0,1-3.24,1.61,2.38,2.38,0,0,1-2.65-2.35c0-1.87,1.68-2.6,3.3-2.6a7.05,7.05,0,0,1,2.54.42v-.8a2.44,2.44,0,0,0-2.73-2.66,4.15,4.15,0,0,0-2.31.57l0,0V43a4.77,4.77,0,0,1,2.5-.6c2.15,0,3.46,1.12,3.46,3.41v3.44c0,.7.22,1,.7,1a.9.9,0,0,0,.62-.23Zm-2.22-1.34V47.33a6.51,6.51,0,0,0-2.38-.4c-1.34,0-2.56.53-2.56,1.82a1.68,1.68,0,0,0,1.9,1.64A3.42,3.42,0,0,0,150.92,48.68Z"/><path class="cls-1" d="M155,39.42h.89V51H155Z"/><polygon class="cls-1" points="49.33 28.08 42.62 53.14 45.28 55.8 53.95 23.46 21.61 32.13 24.27 34.8 49.33 28.08"/></svg>